# xmcd
#
# Track frame offsets:
#	150
#	51300
#	98550
#	115575
#	152550
#	177600
#	206400
#	261525
#	287550
#
# Disc length: 4520 seconds
#
# Revision: 2
# Processed by: cddbd v1.5.1PL0 Copyright (c) Steve Scherf et al.
# Submitted via: audiograbber 1.83.01
#
DISCID=7c11a609
DTITLE=Robert B Reich - Reason (6of6) Why Liberals will win the Battle for Amer
DTITLE=ica
DYEAR=2004
DGENRE=Speech
TTITLE0=Disk6T01
TTITLE1=Disk6T02
TTITLE2=Disk6T03
TTITLE3=Disk6T04
TTITLE4=Disk6T05
TTITLE5=Disk6T06
TTITLE6=Disk6T07
TTITLE7=Disk6T08
TTITLE8=Disk6T09
EXTD=
EXTT0=
EXTT1=
EXTT2=
EXTT3=
EXTT4=
EXTT5=
EXTT6=
EXTT7=
EXTT8=
PLAYORDER=
